<svg width="22" height="23" viewBox="0 0 22 23" fill="none" xmlns="http://www.w3.org/2000/svg">
<path d="M0.788086 15.8702C0.788086 16.9317 1.5761 17.7951 2.54443 17.7951C2.57848 17.7951 2.61062 17.7872 2.63977 17.7739C2.93667 18.7351 3.43568 19.5226 4.13599 20.1251C5.30398 21.1299 7.05406 21.6393 9.33747 21.6393C10.3129 21.6393 11.1208 21.4655 11.7781 21.1806C11.799 21.1869 11.8216 21.1904 11.8448 21.1904H16.1349C16.7529 21.2051 17.1571 21.1019 17.3974 20.8671C17.6333 20.6364 17.6608 20.3245 17.6608 20.1101C17.6608 19.658 17.3072 19.1818 16.6276 19.0435L17.9266 14.9086C19.1739 14.9032 20.2386 14.3707 20.7984 13.4636C21.81 11.8239 20.9302 9.43967 18.8375 8.14856C18.1361 7.71574 17.3712 7.44935 16.6151 7.36491C16.7129 6.53958 16.6186 5.36178 16.359 4.19052C16.1223 3.12167 15.7263 2.15361 15.2434 1.46475C14.7441 0.752185 14.2126 0.416605 13.7441 0.520112C13.0389 0.676189 12.7069 1.82702 12.8496 3.47441C11.7593 2.17459 10.5185 1.27026 9.8166 1.73305C9.40502 2.00462 9.29389 2.68068 9.50417 3.63675C9.70492 4.54925 10.1666 5.58432 10.8043 6.55074C11.3793 7.42238 12.1602 8.21638 13.1275 8.91396C12.8769 9.33507 12.6933 9.72268 12.6241 10.1299C11.9507 9.72459 11.1077 9.35033 9.95061 9.28359C7.6642 9.15149 5.61014 9.82946 4.16758 11.1911C3.34743 11.9652 2.78059 12.914 2.50548 13.9474C1.55485 13.9708 0.788086 14.8234 0.788086 15.8702ZM13.0081 4.42341C13.1149 4.57131 13.2217 4.72521 13.3285 4.88701C13.9479 5.82647 14.4183 6.80488 14.6365 7.60379C14.1285 7.80699 13.7016 8.1205 13.383 8.52963C12.468 7.86746 11.7288 7.11812 11.1875 6.29797C10.5801 5.37703 10.1416 4.39698 9.95279 3.53815C9.76212 2.67169 9.89641 2.23097 10.0694 2.11684C10.4523 1.86434 11.6996 2.62184 12.9858 4.39263C12.9924 4.40379 13 4.41387 13.0081 4.42341ZM16.155 7.33685C15.9837 7.33467 15.8132 7.34121 15.6451 7.35891C15.4471 7.37961 15.2564 7.41393 15.0737 7.46078C14.8397 6.61966 14.3516 5.60338 13.7123 4.63396C13.6123 4.48251 13.5082 4.33243 13.4015 4.1848C13.0959 2.29988 13.3832 1.07088 13.8433 0.969004C14.1056 0.910986 14.4976 1.20217 14.8666 1.72869C15.3155 2.36934 15.686 3.27884 15.9099 4.28994C16.1616 5.42688 16.2523 6.56055 16.155 7.33685ZM2.77433 15.4087C2.77433 13.9447 3.38093 12.5656 4.48273 11.5253C5.83241 10.2514 7.76417 9.61781 9.92365 9.74256C11.1671 9.8142 12.0235 10.2767 12.6971 10.7199C12.7684 10.767 12.86 10.7703 12.9346 10.7289C13.0095 10.6875 13.055 10.6082 13.0531 10.5227C13.0425 10.028 13.2634 9.56497 13.5984 9.02183C14.0179 8.34168 14.7618 7.91349 15.6931 7.8157C16.6461 7.71547 17.6771 7.9726 18.5956 8.53943C20.4726 9.69735 21.2849 11.798 20.4064 13.222C19.9012 14.0411 18.9402 14.4875 17.7662 14.4464C17.6646 14.4431 17.5698 14.5085 17.539 14.6071L16.1063 19.1674C16.085 19.2352 16.0962 19.309 16.1365 19.3673C16.1768 19.4256 16.2419 19.4621 16.313 19.4659C16.9643 19.5013 17.2007 19.8704 17.2007 20.1099C17.2007 20.3245 17.1634 20.4525 17.0757 20.538C16.9338 20.6767 16.6203 20.7421 16.1398 20.7304H12.5802C13.4908 20.0829 13.9724 19.1854 14.1138 18.3628C14.3856 16.7835 13.5881 15.33 12.1741 14.8283C12.1488 14.8193 12.1226 14.8149 12.0973 14.8149C12.0028 14.8149 11.9142 14.8738 11.8807 14.968C11.8383 15.0876 11.9009 15.2192 12.0205 15.2614C13.2195 15.6868 13.8939 16.93 13.6608 18.2846C13.42 19.6838 12.1575 21.1792 9.3372 21.1792C7.1671 21.1792 5.5178 20.7072 4.43534 19.7762C3.33326 18.8283 2.77433 17.3588 2.77433 15.4087ZM1.24787 15.8702C1.24787 15.1162 1.75478 14.4938 2.40361 14.414C2.34586 14.7398 2.31454 15.0718 2.31454 15.4085C2.31454 16.1074 2.38481 16.7489 2.52128 17.3337C1.81689 17.3198 1.24787 16.6693 1.24787 15.8702Z" fill="#1E1E24"/>
<path fill-rule="evenodd" clip-rule="evenodd" d="M9.924 9.74256C7.76452 9.61781 5.83276 10.2514 4.48309 11.5253C3.38129 12.5656 2.77468 13.9447 2.77468 15.4087C2.77468 17.3588 3.33362 18.8283 4.43569 19.7762C5.51816 20.7072 7.16745 21.1792 9.33755 21.1792C12.1578 21.1792 13.4204 19.6838 13.6611 18.2846C13.8943 16.93 13.2199 15.6868 12.0208 15.2614C11.9013 15.2192 11.8386 15.0876 11.8811 14.968C11.9146 14.8738 12.0031 14.8149 12.0976 14.8149C12.123 14.8149 12.1491 14.8193 12.1745 14.8283C13.5884 15.33 14.386 16.7835 14.1141 18.3628C14.0017 19.017 13.674 19.7187 13.0865 20.3042C12.9353 20.4549 12.7669 20.5978 12.5806 20.7303H16.1401C16.6206 20.7421 16.9341 20.6767 17.076 20.538C17.1638 20.4525 17.2011 20.3245 17.2011 20.1099C17.2011 19.8704 16.9646 19.5013 16.3134 19.4659C16.2477 19.4624 16.1872 19.431 16.1465 19.3803C16.1432 19.3761 16.1399 19.3718 16.1369 19.3673C16.121 19.3444 16.1097 19.3191 16.103 19.2926C16.0928 19.2519 16.0937 19.2085 16.1066 19.1674L17.5394 14.6071C17.5523 14.5657 17.5765 14.5302 17.6077 14.5032C17.6158 14.4961 17.6244 14.4896 17.6335 14.4838C17.6723 14.4586 17.7187 14.4449 17.7665 14.4464C18.9405 14.4875 19.9015 14.0411 20.4068 13.222C21.2852 11.798 20.473 9.69735 18.596 8.53943C17.6775 7.9726 16.6465 7.71546 15.6934 7.8157C14.7621 7.91349 14.0182 8.34168 13.5988 9.02183C13.2637 9.56497 13.0428 10.028 13.0534 10.5227C13.0552 10.5993 13.0188 10.671 12.9573 10.7148C12.9502 10.7199 12.9427 10.7246 12.935 10.7289C12.9053 10.7454 12.8729 10.7548 12.8402 10.7571C12.7907 10.7607 12.7404 10.7483 12.6974 10.7199C12.0238 10.2767 11.1674 9.8142 9.924 9.74256ZM12.4631 11.0758C11.8206 10.6531 11.0378 10.2336 9.89949 10.168L9.89942 10.168C7.83609 10.0488 6.02586 10.6551 4.77563 11.8352C3.75576 12.7981 3.20082 14.0664 3.20082 15.4087C3.20082 17.2794 3.73495 18.6114 4.71357 19.4531C5.68727 20.2906 7.21841 20.7531 9.33755 20.7531C10.6712 20.7531 11.5938 20.4006 12.2033 19.9216C12.8139 19.4418 13.1376 18.8141 13.2412 18.2123L13.2412 18.2123C13.4433 17.038 12.8596 16.0114 11.8787 15.6631C11.5367 15.5422 11.3583 15.1665 11.4796 14.8253L11.4796 14.8253L11.4796 14.8253C11.5752 14.5562 11.828 14.3888 12.0976 14.3888C12.1714 14.3888 12.2458 14.4014 12.317 14.4267C13.9455 15.0046 14.8375 16.6719 14.5341 18.4349C14.4263 19.0623 14.1445 19.7217 13.6626 20.3042H16.1453L16.1505 20.3043C16.3726 20.3098 16.5359 20.2965 16.649 20.2732C16.7117 20.2603 16.7477 20.2465 16.7659 20.2382C16.7701 20.2168 16.7747 20.1782 16.7749 20.1139C16.7749 20.1152 16.7749 20.1158 16.7747 20.1158C16.772 20.1162 16.7372 19.9157 16.2902 19.8914C16.0875 19.8805 15.9016 19.7763 15.7864 19.6097C15.6711 19.4431 15.6396 19.2328 15.7 19.04L15.7 19.0398L15.7001 19.0397L17.1326 14.4801C17.1326 14.4801 17.1326 14.48 17.1327 14.4799C17.2218 14.1947 17.4915 14.0112 17.7802 14.0205L17.7809 14.0205L17.7815 14.0205C18.8417 14.0577 19.638 13.6567 20.0441 12.9983C20.398 12.4246 20.4286 11.6882 20.1372 10.9346C19.8457 10.1809 19.2386 9.43657 18.3722 8.90211L18.3722 8.90207C17.5232 8.37816 16.5855 8.15036 15.738 8.2395L15.7379 8.23951L15.7379 8.23951C14.9125 8.32618 14.2992 8.69795 13.9615 9.24552L13.9615 9.24555C13.6307 9.7818 13.4718 10.1523 13.4795 10.5132C13.4849 10.7569 13.3549 10.9836 13.1411 11.1018C12.9286 11.2194 12.6674 11.2105 12.4631 11.0758ZM13.7445 0.52011C14.213 0.416603 14.7444 0.752183 15.2437 1.46475C15.7266 2.15361 16.1227 3.12167 16.3594 4.19051C16.6127 5.3333 16.7085 6.48232 16.6222 7.3041C16.6201 7.32454 16.6178 7.34477 16.6155 7.3648C16.6154 7.36484 16.6154 7.36487 16.6154 7.3649C16.6155 7.36491 16.6155 7.36491 16.6155 7.36491C16.637 7.36731 16.6585 7.36986 16.68 7.37255C17.4151 7.46464 18.1564 7.72805 18.8378 8.14856C20.9306 9.43967 21.8104 11.8239 20.7987 13.4636C20.239 14.3707 19.1742 14.9032 17.927 14.9086L16.628 19.0435C16.7498 19.0683 16.8612 19.1039 16.9619 19.1484C17.423 19.3518 17.6611 19.739 17.6611 20.1101C17.6611 20.3245 17.6336 20.6364 17.3977 20.8671C17.1575 21.1019 16.7533 21.2051 16.1352 21.1904H11.8451C11.822 21.1904 11.7994 21.1869 11.7784 21.1806C11.1211 21.4655 10.3132 21.6393 9.33783 21.6393C7.05441 21.6393 5.30433 21.1299 4.13634 20.1251C3.53654 19.6091 3.08441 18.9573 2.78044 18.177C2.72951 18.0462 2.68273 17.9118 2.64012 17.7739C2.62156 17.7824 2.60179 17.7887 2.58108 17.7921C2.56927 17.7941 2.55715 17.7951 2.54479 17.7951C1.57646 17.7951 0.788442 16.9317 0.788442 15.8702C0.788442 14.8234 1.55521 13.9708 2.50584 13.9474C2.78095 12.914 3.34778 11.9652 4.16794 11.1911C5.61049 9.82945 7.66456 9.15148 9.95097 9.28359C10.8947 9.33802 11.6296 9.59703 12.2338 9.9106C12.3704 9.98149 12.5003 10.0552 12.6244 10.1299C12.6489 9.98573 12.6878 9.84403 12.7388 9.70242C12.832 9.44404 12.9659 9.18599 13.1278 8.91396C12.1606 8.21638 11.3796 7.42238 10.8046 6.55074C10.167 5.58431 9.70528 4.54925 9.50453 3.63675C9.29425 2.68068 9.40538 2.00461 9.81695 1.73305C10.4225 1.33381 11.429 1.952 12.3941 2.96382C12.5477 3.12488 12.7002 3.29592 12.85 3.47441C12.8293 3.23618 12.8186 3.00832 12.8175 2.79237C12.8111 1.51497 13.1413 0.653616 13.7445 0.52011ZM12.4018 2.36806C12.4235 1.97683 12.4794 1.62229 12.571 1.31602C12.7407 0.747944 13.0732 0.232227 13.6524 0.104041L13.6526 0.104007C14.0249 0.0217436 14.389 0.123681 14.7098 0.325924C15.0271 0.525942 15.3231 0.83548 15.5926 1.22012C15.5927 1.22015 15.5927 1.22018 15.5927 1.22021C16.1159 1.96661 16.5301 2.99063 16.7755 4.09837C17.0023 5.12186 17.1103 6.16663 17.0717 7.00323C17.7565 7.13378 18.4343 7.39882 19.0616 7.78591C21.2672 9.14666 22.3444 11.7699 21.1614 13.6874L21.1614 13.6874L21.1614 13.6874C20.5601 14.6619 19.4779 15.2352 18.2435 15.323L17.1602 18.771C17.7396 19.0382 18.0873 19.5532 18.0873 20.1101C18.0873 20.3449 18.0626 20.8129 17.6957 21.1717L17.6956 21.1718C17.3275 21.5316 16.773 21.6312 16.1303 21.6165H11.8451C11.8437 21.6165 11.8424 21.6165 11.841 21.6165C11.1452 21.9 10.3137 22.0654 9.33783 22.0654C7.00022 22.0654 5.13356 21.5452 3.85843 20.4482L3.85841 20.4481C3.16998 19.8558 2.66425 19.1035 2.33782 18.211C1.20176 18.0975 0.362305 17.0583 0.362305 15.8702C0.362305 14.7381 1.12343 13.7449 2.17707 13.5538C2.49662 12.5523 3.07464 11.6371 3.87543 10.8812C5.41662 9.42646 7.59172 8.72043 9.97555 8.85816C10.9556 8.91469 11.7279 9.17774 12.3606 9.49686C12.421 9.33896 12.493 9.1844 12.573 9.03157C11.7081 8.36331 10.9933 7.61066 10.4489 6.7854C9.78912 5.78541 9.30263 4.70236 9.08834 3.72831L9.08834 3.72829C8.97648 3.21972 8.94228 2.75357 9.00704 2.35917C9.07209 1.96295 9.24563 1.59948 9.58226 1.37736L9.58233 1.37732L9.58239 1.37727C10.1605 0.996127 10.8575 1.23709 11.4121 1.58042C11.738 1.78218 12.0727 2.05297 12.4018 2.36806ZM9.95315 3.53815C10.1419 4.39698 10.5805 5.37703 11.1879 6.29797C11.7291 7.11812 12.4684 7.86746 13.3833 8.52963C13.702 8.1205 14.1288 7.80699 14.6368 7.60379C14.4186 6.80488 13.9482 5.82647 13.3288 4.88701C13.2221 4.72521 13.1153 4.57131 13.0085 4.4234C13.0003 4.41387 12.9927 4.40379 12.9862 4.39262C11.7 2.62184 10.4527 1.86434 10.0697 2.11684C9.89676 2.23097 9.76248 2.67169 9.95315 3.53815ZM12.6329 4.63133C12.0121 3.77883 11.4122 3.18569 10.9383 2.84043C10.6984 2.66568 10.5064 2.56585 10.3722 2.52144C10.3503 2.51417 10.3317 2.50893 10.3162 2.50515C10.3098 2.52892 10.303 2.56068 10.2974 2.60227C10.2747 2.77062 10.2809 3.04481 10.3693 3.44657L10.3693 3.44662L10.3693 3.44667C10.5444 4.24331 10.9579 5.17531 11.5436 6.06334C11.9917 6.74238 12.589 7.37686 13.3264 7.95369C13.5591 7.72403 13.8257 7.53013 14.1199 7.37413C13.8871 6.69607 13.4867 5.90058 12.9732 5.12172C12.8726 4.96931 12.7719 4.82397 12.671 4.68394C12.659 4.66908 12.646 4.65153 12.6329 4.63133ZM10.2511 2.49571C10.2511 2.49571 10.2512 2.4957 10.2514 2.49568C10.2512 2.49571 10.2511 2.49572 10.2511 2.49571ZM2.06255 17.2291C2.20491 17.2937 2.3597 17.3305 2.52164 17.3337C2.4886 17.1921 2.45944 17.0472 2.43422 16.899C2.35526 16.4349 2.31489 15.9382 2.31489 15.4085C2.31489 15.2244 2.32426 15.0417 2.34218 14.8607C2.35704 14.7106 2.37779 14.5617 2.40396 14.414C2.24103 14.434 2.08705 14.4883 1.9478 14.5702C1.53252 14.8147 1.24823 15.3055 1.24823 15.8702C1.24823 16.4856 1.58569 17.0129 2.06255 17.2291ZM1.89303 15.1844C1.76023 15.3614 1.67437 15.5967 1.67437 15.8702C1.67437 16.1922 1.79179 16.459 1.96496 16.6414C1.91426 16.2491 1.88876 15.838 1.88876 15.4085C1.88876 15.3335 1.8902 15.2588 1.89303 15.1844ZM14.0683 4.39928L14.0684 4.39936C14.6339 5.25692 15.0913 6.15999 15.3663 6.96586C15.4435 6.95366 15.5217 6.9434 15.6008 6.93512C15.6545 6.92946 15.7082 6.92485 15.762 6.9212C15.7917 6.2314 15.7011 5.31694 15.4942 4.38204C15.2787 3.40892 14.9262 2.55579 14.518 1.97329C14.3504 1.73411 14.1904 1.56768 14.0612 1.47178C14.0075 1.43187 13.9691 1.41116 13.9446 1.40036C13.9356 1.41275 13.9244 1.43002 13.9115 1.45368C13.8558 1.55569 13.7972 1.72666 13.7561 1.97724C13.6775 2.45678 13.6747 3.15244 13.807 4.01854C13.8963 4.14385 13.9836 4.27093 14.0683 4.39921L14.0683 4.39928ZM13.4018 4.18479C13.5086 4.33243 13.6127 4.48251 13.7126 4.63396C14.3519 5.60338 14.84 6.61965 15.074 7.46078C15.2568 7.41393 15.4475 7.37961 15.6455 7.35891C15.8135 7.34121 15.9841 7.33467 16.1554 7.33685C16.2526 6.56055 16.1619 5.42688 15.9102 4.28994C15.6863 3.27884 15.3159 2.36934 14.867 1.72869C14.4979 1.20216 14.1059 0.910984 13.8436 0.969002C13.3836 1.07087 13.0962 2.29988 13.4018 4.18479ZM13.9697 1.37188C13.9697 1.3719 13.9694 1.37216 13.9687 1.37262C13.9694 1.37209 13.9697 1.37186 13.9697 1.37188Z" fill="#1E1E24"/>
</svg>
