<svg xmlns="http://www.w3.org/2000/svg" width="1024" height="1024" viewBox="0 0 1024 1024" version="1.1">
	<path d="M 500.500 100.541 C 478.845 105.216, 459.914 122.168, 453.414 142.703 C 451.350 149.225, 450.509 166.103, 451.884 173.423 C 454.417 186.914, 466.074 204.420, 476.906 211 C 481.551 213.821, 481.577 212.990, 476.456 225.380 C 464.107 255.262, 457.635 293.012, 457.577 335.500 C 457.532 368.306, 459.600 385.740, 468.028 423.626 C 471.116 437.508, 474.373 461.033, 473.822 465.483 C 473.545 467.727, 472.343 468.554, 465.159 471.444 C 442.490 480.562, 424.777 500.465, 420.717 521.377 L 419.382 528.254 410.441 531.458 C 388.628 539.274, 371.410 550.040, 353.618 566.991 C 319.075 599.898, 300.251 644.076, 293.534 708 C 289.626 745.198, 288.787 752.132, 286.884 763 C 275.996 825.187, 255.835 863.630, 213.840 902.282 C 207.804 907.836, 202.447 913.166, 201.933 914.125 C 201.396 915.129, 201 934.641, 201 960.119 C 201 1010.394, 200.998 1010.383, 208.886 1014.816 L 212.772 1017 510.636 1016.994 C 709.776 1016.991, 809.716 1016.651, 812.168 1015.970 C 816.616 1014.735, 821.512 1009.420, 822.940 1004.277 C 823.594 1001.923, 823.983 985.246, 823.972 960 C 823.953 912.824, 824.318 914.776, 813.874 905.949 C 782.197 879.175, 760.426 846.897, 747.470 807.500 C 739.685 783.824, 736.995 768.615, 733.008 725.728 C 729.323 686.087, 725.894 666.900, 718.312 643.500 C 700.286 587.869, 662.612 547.547, 613.714 531.549 C 602.489 527.876, 602.683 528.064, 601.083 519.322 C 597.413 499.280, 579.547 479.819, 556.500 470.758 L 552.500 469.185 552.657 461.342 C 552.846 451.870, 555.017 438.569, 559.649 418.500 C 564.485 397.552, 567.814 375.488, 569.205 355.173 C 572.338 309.413, 562.279 249.909, 546.024 218.047 C 544.834 215.715, 544.004 213.698, 544.180 213.565 C 544.356 213.433, 546.589 211.913, 549.143 210.188 C 569.353 196.535, 579.223 169.832, 573.022 145.585 C 565.090 114.571, 531.669 93.813, 500.500 100.541 M 505 132.935 C 478.402 141.055, 476.423 176.987, 501.949 188.307 C 520.276 196.434, 542.291 182.110, 542.382 162 C 542.468 142.902, 522.699 127.532, 505 132.935 M 509.167 229.789 C 501.559 246.294, 495.333 272.102, 491.505 303 C 487.113 338.448, 488.584 362.597, 498.023 410 C 501.548 427.701, 502.685 435.763, 504.546 456.250 L 505.159 463 513.338 463 L 521.518 463 521.806 454.750 C 522.196 443.570, 524.249 430.421, 529.080 408.178 C 541.055 353.030, 540.729 315.019, 527.834 263 C 523.722 246.412, 515.046 223, 513.011 223 C 512.618 223, 510.888 226.055, 509.167 229.789 M 495.500 493.410 C 477.277 496.977, 463.018 506.197, 455.534 519.250 L 452.810 524 511.922 524 L 571.034 524 568.429 518.859 C 563.136 508.415, 549.215 498.722, 533.500 494.539 C 525.110 492.306, 504.297 491.687, 495.500 493.410 M 450.500 554.612 C 449.400 554.851, 444.450 555.777, 439.500 556.671 C 413.997 561.274, 392.080 572.827, 373.462 591.481 C 345.331 619.665, 330.720 657.422, 324.501 718 C 318.051 780.837, 310.837 811.589, 294.231 847.038 C 286.137 864.317, 272.272 885.808, 261.458 897.836 L 256.815 903 511.458 903 L 766.101 903 762.993 899.750 C 748.968 885.088, 731.777 856.104, 721.623 830 C 709.775 799.544, 704.214 772.787, 700.007 726 C 696.333 685.145, 692.922 666.754, 684.982 645 C 670.278 604.707, 638.922 572.471, 602.500 560.202 C 585.954 554.629, 586.447 554.662, 517 554.411 C 481.525 554.283, 451.600 554.373, 450.500 554.612 M 570.222 682.400 C 568.580 684.270, 564.057 690.458, 560.171 696.150 C 545.192 718.093, 518.978 746.509, 500.500 760.833 C 496.100 764.244, 491.150 768.244, 489.500 769.723 C 478.717 779.386, 424.486 811, 418.694 811 C 417.703 811, 419.060 808.240, 422.752 802.750 C 441.571 774.762, 447.595 734.266, 436.756 708.603 C 423.053 676.158, 399.328 693.554, 390.391 742.602 C 388.990 750.288, 388.546 758.421, 388.402 779 C 388.195 808.595, 387.588 812.501, 381.627 822.615 C 377.617 829.417, 373.465 833.572, 363 841.256 C 350.783 850.227, 348.158 854.093, 350.501 859.665 C 354.270 868.628, 360.493 868.110, 376.949 857.464 C 387.994 850.319, 404.887 842.294, 414.967 839.402 C 429.569 835.214, 436.243 835.968, 462.500 844.775 C 489.585 853.859, 505.534 856.971, 525.119 856.992 C 540.971 857.009, 559.383 852.112, 563.287 846.840 C 570.739 836.774, 547.738 817.719, 519.500 810.565 C 502.350 806.220, 486.359 804.772, 480.426 807.028 C 475.491 808.904, 476.822 807.298, 484.204 802.467 C 518.952 779.728, 540.951 759.246, 560.964 731 C 578.793 705.836, 586.472 685.246, 579.777 680.557 C 576.320 678.135, 573.486 678.682, 570.222 682.400 M 232 957.974 L 232 984.957 362.750 985.228 C 434.663 985.378, 493.619 985.456, 493.765 985.402 C 493.911 985.348, 490.226 984.066, 485.576 982.554 C 463.703 975.438, 443.593 956.476, 436.875 936.632 L 435.138 931.500 333.569 931.245 L 232 930.991 232 957.974 M 588.375 932.750 C 580.675 956.712, 558.933 977.196, 533.953 984.025 L 526.500 986.062 535 985.537 C 539.675 985.248, 599.638 985.009, 668.250 985.006 L 793 985 793 958 L 793 931 690.969 931 C 594.677 931, 588.906 931.098, 588.375 932.750 M 470.425 934.854 C 474.288 942.325, 489.159 952.504, 500.542 955.469 C 518.622 960.178, 540.348 951.982, 551.061 936.411 L 554.096 932 511.522 932 L 468.949 932 470.425 934.854" stroke="none" fill="#1E1E24" fill-rule="evenodd"/>
</svg>